<svg width="256" height="256" viewBox="0 0 256 256" fill="none" xmlns="http://www.w3.org/2000/svg">
  <path d="M128 34C76.086 34 34 76.086 34 128C34 179.914 76.086 222 128 222C179.914 222 222 179.914 222 128C222 76.086 179.914 34 128 34ZM128 58C166.66 58 198 89.34 198 128C198 166.66 166.66 198 128 198C89.34 198 58 166.66 58 128C58 89.34 89.34 58 128 58Z" fill="black"/>
  <path d="M128 78C100.386 78 78 100.386 78 128C78 155.614 100.386 178 128 178C155.614 178 178 155.614 178 128C178 100.386 155.614 78 128 78ZM128 102C142.359 102 154 113.641 154 128C154 142.359 142.359 154 128 154C113.641 154 102 142.359 102 128C102 113.641 113.641 102 128 102Z" fill="black"/>
  <circle cx="128" cy="128" r="15" fill="black"/>
</svg>
